<mxfile host="Electron" agent="Mozilla/5.0 (Macintosh; Intel Mac OS X 10_15_7) AppleWebKit/537.36 (KHTML, like Gecko) draw.io/26.2.2 Chrome/134.0.6998.178 Electron/35.1.2 Safari/537.36" version="26.2.2">
  <diagram name="Page-1" id="aifNU5k27d1jRonnVLJ-">
    <mxGraphModel dx="674" dy="969" grid="1" gridSize="10" guides="1" tooltips="1" connect="1" arrows="1" fold="1" page="1" pageScale="1" pageWidth="827" pageHeight="1169" math="0" shadow="0">
      <root>
        <mxCell id="0" />
        <mxCell id="1" parent="0" />
        <mxCell id="Qr2NroEPM4adYSrVmiOJ-1" value="Docente" style="shape=umlActor;verticalLabelPosition=bottom;verticalAlign=top;html=1;" vertex="1" parent="1">
          <mxGeometry x="120" y="385" width="30" height="60" as="geometry" />
        </mxCell>
        <mxCell id="Qr2NroEPM4adYSrVmiOJ-2" value="Studente" style="shape=umlActor;verticalLabelPosition=bottom;verticalAlign=top;html=1;" vertex="1" parent="1">
          <mxGeometry x="630" y="385" width="30" height="60" as="geometry" />
        </mxCell>
        <mxCell id="Qr2NroEPM4adYSrVmiOJ-7" value="Educational games - casi d&#39;uso" style="shape=umlFrame;whiteSpace=wrap;html=1;pointerEvents=0;recursiveResize=0;container=1;collapsible=0;width=190;height=30;" vertex="1" parent="1">
          <mxGeometry x="190" y="60" width="410" height="710" as="geometry" />
        </mxCell>
        <mxCell id="Qr2NroEPM4adYSrVmiOJ-8" value="Registrazione" style="ellipse;whiteSpace=wrap;html=1;" vertex="1" parent="Qr2NroEPM4adYSrVmiOJ-7">
          <mxGeometry x="20" y="290" width="110" height="60" as="geometry" />
        </mxCell>
        <mxCell id="Qr2NroEPM4adYSrVmiOJ-12" value="Accesso" style="ellipse;whiteSpace=wrap;html=1;" vertex="1" parent="Qr2NroEPM4adYSrVmiOJ-7">
          <mxGeometry x="20" y="390" width="110" height="60" as="geometry" />
        </mxCell>
        <mxCell id="Qr2NroEPM4adYSrVmiOJ-13" value="Creare classe virtuale" style="ellipse;whiteSpace=wrap;html=1;" vertex="1" parent="Qr2NroEPM4adYSrVmiOJ-7">
          <mxGeometry x="20" y="180" width="110" height="60" as="geometry" />
        </mxCell>
        <mxCell id="Qr2NroEPM4adYSrVmiOJ-16" value="Extends" style="endArrow=block;endSize=16;endFill=0;html=1;rounded=0;" edge="1" parent="Qr2NroEPM4adYSrVmiOJ-7" source="Qr2NroEPM4adYSrVmiOJ-8" target="Qr2NroEPM4adYSrVmiOJ-13">
          <mxGeometry width="160" relative="1" as="geometry">
            <mxPoint x="-60" y="260" as="sourcePoint" />
            <mxPoint x="290" y="320" as="targetPoint" />
          </mxGeometry>
        </mxCell>
        <mxCell id="Qr2NroEPM4adYSrVmiOJ-17" value="Creazione link d&#39;invito" style="ellipse;whiteSpace=wrap;html=1;" vertex="1" parent="Qr2NroEPM4adYSrVmiOJ-7">
          <mxGeometry x="20" y="70" width="110" height="60" as="geometry" />
        </mxCell>
        <mxCell id="Qr2NroEPM4adYSrVmiOJ-18" value="&amp;lt;&amp;lt;include&amp;gt;&amp;gt;" style="html=1;verticalAlign=bottom;labelBackgroundColor=none;endArrow=open;endFill=0;dashed=1;rounded=0;" edge="1" parent="Qr2NroEPM4adYSrVmiOJ-7" source="Qr2NroEPM4adYSrVmiOJ-17" target="Qr2NroEPM4adYSrVmiOJ-13">
          <mxGeometry width="160" relative="1" as="geometry">
            <mxPoint x="-60" y="150" as="sourcePoint" />
            <mxPoint x="290" y="210" as="targetPoint" />
          </mxGeometry>
        </mxCell>
        <mxCell id="Qr2NroEPM4adYSrVmiOJ-19" value="Navigare nel catalogo dei giochi didattici" style="ellipse;whiteSpace=wrap;html=1;" vertex="1" parent="Qr2NroEPM4adYSrVmiOJ-7">
          <mxGeometry x="20" y="480" width="110" height="60" as="geometry" />
        </mxCell>
        <mxCell id="Qr2NroEPM4adYSrVmiOJ-23" value="Scelta videogioco per classe virtuale" style="ellipse;whiteSpace=wrap;html=1;" vertex="1" parent="Qr2NroEPM4adYSrVmiOJ-7">
          <mxGeometry x="20" y="600" width="110" height="60" as="geometry" />
        </mxCell>
        <mxCell id="Qr2NroEPM4adYSrVmiOJ-24" value="Extends" style="endArrow=block;endSize=16;endFill=0;html=1;rounded=0;" edge="1" parent="Qr2NroEPM4adYSrVmiOJ-7" source="Qr2NroEPM4adYSrVmiOJ-19" target="Qr2NroEPM4adYSrVmiOJ-23">
          <mxGeometry width="160" relative="1" as="geometry">
            <mxPoint x="200" y="510" as="sourcePoint" />
            <mxPoint x="200" y="460" as="targetPoint" />
          </mxGeometry>
        </mxCell>
        <mxCell id="Qr2NroEPM4adYSrVmiOJ-26" value="Registra a classe virtuale" style="ellipse;whiteSpace=wrap;html=1;" vertex="1" parent="Qr2NroEPM4adYSrVmiOJ-7">
          <mxGeometry x="260" y="325" width="110" height="60" as="geometry" />
        </mxCell>
        <mxCell id="Qr2NroEPM4adYSrVmiOJ-28" value="&amp;lt;&amp;lt;include&amp;gt;&amp;gt;" style="html=1;verticalAlign=bottom;labelBackgroundColor=none;endArrow=open;endFill=0;dashed=1;rounded=0;" edge="1" parent="Qr2NroEPM4adYSrVmiOJ-7" source="Qr2NroEPM4adYSrVmiOJ-29" target="Qr2NroEPM4adYSrVmiOJ-26">
          <mxGeometry width="160" relative="1" as="geometry">
            <mxPoint x="125" y="105" as="sourcePoint" />
            <mxPoint x="460" y="210" as="targetPoint" />
          </mxGeometry>
        </mxCell>
        <mxCell id="Qr2NroEPM4adYSrVmiOJ-29" value="Apertura link di invito" style="ellipse;whiteSpace=wrap;html=1;" vertex="1" parent="Qr2NroEPM4adYSrVmiOJ-7">
          <mxGeometry x="260" y="220" width="110" height="60" as="geometry" />
        </mxCell>
        <mxCell id="Qr2NroEPM4adYSrVmiOJ-31" value="Extends" style="endArrow=block;endSize=16;endFill=0;html=1;rounded=0;" edge="1" parent="Qr2NroEPM4adYSrVmiOJ-7" source="Qr2NroEPM4adYSrVmiOJ-26" target="Qr2NroEPM4adYSrVmiOJ-46">
          <mxGeometry width="160" relative="1" as="geometry">
            <mxPoint x="330" y="495" as="sourcePoint" />
            <mxPoint x="315" y="470" as="targetPoint" />
          </mxGeometry>
        </mxCell>
        <mxCell id="Qr2NroEPM4adYSrVmiOJ-46" value="Svolge il videogioco" style="ellipse;whiteSpace=wrap;html=1;" vertex="1" parent="Qr2NroEPM4adYSrVmiOJ-7">
          <mxGeometry x="260" y="470" width="110" height="60" as="geometry" />
        </mxCell>
        <mxCell id="Qr2NroEPM4adYSrVmiOJ-47" value="Visualizza classifica" style="ellipse;whiteSpace=wrap;html=1;" vertex="1" parent="Qr2NroEPM4adYSrVmiOJ-7">
          <mxGeometry x="150" y="70" width="110" height="60" as="geometry" />
        </mxCell>
        <mxCell id="Qr2NroEPM4adYSrVmiOJ-14" value="" style="endArrow=open;endFill=1;endSize=12;html=1;rounded=0;" edge="1" parent="1" source="Qr2NroEPM4adYSrVmiOJ-1" target="Qr2NroEPM4adYSrVmiOJ-8">
          <mxGeometry width="160" relative="1" as="geometry">
            <mxPoint x="155" y="415" as="sourcePoint" />
            <mxPoint x="315" y="415" as="targetPoint" />
          </mxGeometry>
        </mxCell>
        <mxCell id="Qr2NroEPM4adYSrVmiOJ-15" value="" style="endArrow=open;endFill=1;endSize=12;html=1;rounded=0;" edge="1" parent="1" source="Qr2NroEPM4adYSrVmiOJ-1" target="Qr2NroEPM4adYSrVmiOJ-12">
          <mxGeometry width="160" relative="1" as="geometry">
            <mxPoint x="140" y="445" as="sourcePoint" />
            <mxPoint x="140" y="605" as="targetPoint" />
          </mxGeometry>
        </mxCell>
        <mxCell id="Qr2NroEPM4adYSrVmiOJ-21" value="" style="endArrow=open;endFill=1;endSize=12;html=1;rounded=0;" edge="1" parent="1" source="Qr2NroEPM4adYSrVmiOJ-1" target="Qr2NroEPM4adYSrVmiOJ-19">
          <mxGeometry width="160" relative="1" as="geometry">
            <mxPoint x="140" y="445" as="sourcePoint" />
            <mxPoint x="140" y="605" as="targetPoint" />
          </mxGeometry>
        </mxCell>
        <mxCell id="Qr2NroEPM4adYSrVmiOJ-27" value="" style="endArrow=open;endFill=1;endSize=12;html=1;rounded=0;" edge="1" parent="1" source="Qr2NroEPM4adYSrVmiOJ-2" target="Qr2NroEPM4adYSrVmiOJ-26">
          <mxGeometry width="160" relative="1" as="geometry">
            <mxPoint x="280" y="355" as="sourcePoint" />
            <mxPoint x="660" y="475" as="targetPoint" />
          </mxGeometry>
        </mxCell>
        <mxCell id="Qr2NroEPM4adYSrVmiOJ-48" value="" style="endArrow=open;endFill=1;endSize=12;html=1;rounded=0;" edge="1" parent="1" source="Qr2NroEPM4adYSrVmiOJ-1" target="Qr2NroEPM4adYSrVmiOJ-47">
          <mxGeometry width="160" relative="1" as="geometry">
            <mxPoint x="135" y="225" as="sourcePoint" />
            <mxPoint x="135" y="225" as="targetPoint" />
          </mxGeometry>
        </mxCell>
      </root>
    </mxGraphModel>
  </diagram>
</mxfile>
